<svg xmlns="http://www.w3.org/2000/svg" width="512" height="512" viewBox="0 0 32 32" shape-rendering="crispEdges" role="img" aria-labelledby="title">
<title id="title">Allen pixel cat</title>
<desc>Photo-inspired cat with lively highlighted eyes and pixel whiskers. Transparent background.</desc>
<rect x="5" y="3" width="3" height="1" fill="#493b33"/>
<rect x="24" y="3" width="3" height="1" fill="#493b33"/>
<rect x="4" y="4" width="6" height="1" fill="#493b33"/>
<rect x="22" y="4" width="6" height="1" fill="#493b33"/>
<rect x="4" y="5" width="1" height="1" fill="#493b33"/>
<rect x="5" y="5" width="3" height="1" fill="#a58d73"/>
<rect x="8" y="5" width="4" height="1" fill="#493b33"/>
<rect x="20" y="5" width="4" height="1" fill="#493b33"/>
<rect x="24" y="5" width="3" height="1" fill="#a58d73"/>
<rect x="27" y="5" width="1" height="1" fill="#493b33"/>
<rect x="4" y="6" width="1" height="1" fill="#493b33"/>
<rect x="5" y="6" width="1" height="1" fill="#a58d73"/>
<rect x="6" y="6" width="2" height="1" fill="#d3978a"/>
<rect x="8" y="6" width="2" height="1" fill="#a58d73"/>
<rect x="10" y="6" width="12" height="1" fill="#493b33"/>
<rect x="22" y="6" width="2" height="1" fill="#a58d73"/>
<rect x="24" y="6" width="2" height="1" fill="#d3978a"/>
<rect x="26" y="6" width="1" height="1" fill="#a58d73"/>
<rect x="27" y="6" width="1" height="1" fill="#493b33"/>
<rect x="4" y="7" width="1" height="1" fill="#493b33"/>
<rect x="5" y="7" width="1" height="1" fill="#a58d73"/>
<rect x="6" y="7" width="4" height="1" fill="#493b33"/>
<rect x="10" y="7" width="2" height="1" fill="#a58d73"/>
<rect x="12" y="7" width="2" height="1" fill="#5e4c3e"/>
<rect x="14" y="7" width="4" height="1" fill="#a58d73"/>
<rect x="18" y="7" width="2" height="1" fill="#5e4c3e"/>
<rect x="20" y="7" width="2" height="1" fill="#a58d73"/>
<rect x="22" y="7" width="4" height="1" fill="#493b33"/>
<rect x="26" y="7" width="1" height="1" fill="#a58d73"/>
<rect x="27" y="7" width="1" height="1" fill="#493b33"/>
<rect x="4" y="8" width="1" height="1" fill="#493b33"/>
<rect x="5" y="8" width="1" height="1" fill="#a58d73"/>
<rect x="6" y="8" width="1" height="1" fill="#493b33"/>
<rect x="7" y="8" width="2" height="1" fill="#a58d73"/>
<rect x="9" y="8" width="2" height="1" fill="#5e4c3e"/>
<rect x="11" y="8" width="1" height="1" fill="#a58d73"/>
<rect x="12" y="8" width="2" height="1" fill="#5e4c3e"/>
<rect x="14" y="8" width="4" height="1" fill="#a58d73"/>
<rect x="18" y="8" width="2" height="1" fill="#5e4c3e"/>
<rect x="20" y="8" width="1" height="1" fill="#a58d73"/>
<rect x="21" y="8" width="2" height="1" fill="#5e4c3e"/>
<rect x="23" y="8" width="2" height="1" fill="#a58d73"/>
<rect x="25" y="8" width="1" height="1" fill="#493b33"/>
<rect x="26" y="8" width="1" height="1" fill="#a58d73"/>
<rect x="27" y="8" width="1" height="1" fill="#493b33"/>
<rect x="4" y="9" width="3" height="1" fill="#493b33"/>
<rect x="7" y="9" width="1" height="1" fill="#a58d73"/>
<rect x="8" y="9" width="1" height="1" fill="#c2ad91"/>
<rect x="9" y="9" width="2" height="1" fill="#5e4c3e"/>
<rect x="11" y="9" width="1" height="1" fill="#c2ad91"/>
<rect x="12" y="9" width="8" height="1" fill="#5e4c3e"/>
<rect x="20" y="9" width="1" height="1" fill="#c2ad91"/>
<rect x="21" y="9" width="2" height="1" fill="#5e4c3e"/>
<rect x="23" y="9" width="1" height="1" fill="#c2ad91"/>
<rect x="24" y="9" width="1" height="1" fill="#a58d73"/>
<rect x="25" y="9" width="3" height="1" fill="#493b33"/>
<rect x="4" y="10" width="1" height="1" fill="#493b33"/>
<rect x="5" y="10" width="3" height="1" fill="#a58d73"/>
<rect x="8" y="10" width="1" height="1" fill="#c2ad91"/>
<rect x="9" y="10" width="2" height="1" fill="#5e4c3e"/>
<rect x="11" y="10" width="3" height="1" fill="#c2ad91"/>
<rect x="14" y="10" width="4" height="1" fill="#5e4c3e"/>
<rect x="18" y="10" width="3" height="1" fill="#c2ad91"/>
<rect x="21" y="10" width="2" height="1" fill="#5e4c3e"/>
<rect x="23" y="10" width="1" height="1" fill="#c2ad91"/>
<rect x="24" y="10" width="3" height="1" fill="#a58d73"/>
<rect x="27" y="10" width="1" height="1" fill="#493b33"/>
<rect x="4" y="11" width="1" height="1" fill="#493b33"/>
<rect x="5" y="11" width="3" height="1" fill="#a58d73"/>
<rect x="8" y="11" width="7" height="1" fill="#c2ad91"/>
<rect x="15" y="11" width="2" height="1" fill="#5e4c3e"/>
<rect x="17" y="11" width="7" height="1" fill="#c2ad91"/>
<rect x="24" y="11" width="3" height="1" fill="#a58d73"/>
<rect x="27" y="11" width="1" height="1" fill="#493b33"/>
<rect x="3" y="12" width="2" height="1" fill="#493b33"/>
<rect x="5" y="12" width="3" height="1" fill="#a58d73"/>
<rect x="8" y="12" width="1" height="1" fill="#332d29"/>
<rect x="9" y="12" width="1" height="1" fill="#ffffff"/>
<rect x="10" y="12" width="2" height="1" fill="#b8be78"/>
<rect x="12" y="12" width="8" height="1" fill="#a58d73"/>
<rect x="20" y="12" width="1" height="1" fill="#332d29"/>
<rect x="21" y="12" width="1" height="1" fill="#ffffff"/>
<rect x="22" y="12" width="2" height="1" fill="#b8be78"/>
<rect x="24" y="12" width="3" height="1" fill="#a58d73"/>
<rect x="27" y="12" width="2" height="1" fill="#493b33"/>
<rect x="3" y="13" width="1" height="1" fill="#493b33"/>
<rect x="4" y="13" width="3" height="1" fill="#a58d73"/>
<rect x="7" y="13" width="1" height="1" fill="#332d29"/>
<rect x="8" y="13" width="1" height="1" fill="#fff9ef"/>
<rect x="9" y="13" width="2" height="1" fill="#332d29"/>
<rect x="11" y="13" width="1" height="1" fill="#b8be78"/>
<rect x="12" y="13" width="1" height="1" fill="#332d29"/>
<rect x="13" y="13" width="6" height="1" fill="#a58d73"/>
<rect x="19" y="13" width="1" height="1" fill="#332d29"/>
<rect x="20" y="13" width="1" height="1" fill="#fff9ef"/>
<rect x="21" y="13" width="2" height="1" fill="#332d29"/>
<rect x="23" y="13" width="1" height="1" fill="#b8be78"/>
<rect x="24" y="13" width="1" height="1" fill="#332d29"/>
<rect x="25" y="13" width="3" height="1" fill="#a58d73"/>
<rect x="28" y="13" width="1" height="1" fill="#493b33"/>
<rect x="2" y="14" width="2" height="1" fill="#493b33"/>
<rect x="4" y="14" width="3" height="1" fill="#a58d73"/>
<rect x="7" y="14" width="1" height="1" fill="#332d29"/>
<rect x="8" y="14" width="1" height="1" fill="#fff9ef"/>
<rect x="9" y="14" width="2" height="1" fill="#332d29"/>
<rect x="11" y="14" width="1" height="1" fill="#f6ffe7"/>
<rect x="12" y="14" width="1" height="1" fill="#332d29"/>
<rect x="13" y="14" width="6" height="1" fill="#a58d73"/>
<rect x="19" y="14" width="1" height="1" fill="#332d29"/>
<rect x="20" y="14" width="1" height="1" fill="#fff9ef"/>
<rect x="21" y="14" width="2" height="1" fill="#332d29"/>
<rect x="23" y="14" width="1" height="1" fill="#f6ffe7"/>
<rect x="24" y="14" width="1" height="1" fill="#332d29"/>
<rect x="25" y="14" width="3" height="1" fill="#a58d73"/>
<rect x="28" y="14" width="2" height="1" fill="#493b33"/>
<rect x="2" y="15" width="2" height="1" fill="#493b33"/>
<rect x="4" y="15" width="3" height="1" fill="#a58d73"/>
<rect x="7" y="15" width="1" height="1" fill="#332d29"/>
<rect x="8" y="15" width="1" height="1" fill="#fff9ef"/>
<rect x="9" y="15" width="3" height="1" fill="#858d50"/>
<rect x="12" y="15" width="1" height="1" fill="#332d29"/>
<rect x="13" y="15" width="6" height="1" fill="#a58d73"/>
<rect x="19" y="15" width="1" height="1" fill="#332d29"/>
<rect x="20" y="15" width="1" height="1" fill="#fff9ef"/>
<rect x="21" y="15" width="3" height="1" fill="#858d50"/>
<rect x="24" y="15" width="1" height="1" fill="#332d29"/>
<rect x="25" y="15" width="3" height="1" fill="#a58d73"/>
<rect x="28" y="15" width="2" height="1" fill="#493b33"/>
<rect x="2" y="16" width="2" height="1" fill="#493b33"/>
<rect x="4" y="16" width="1" height="1" fill="#a58d73"/>
<rect x="5" y="16" width="3" height="1" fill="#5e4c3e"/>
<rect x="8" y="16" width="4" height="1" fill="#332d29"/>
<rect x="12" y="16" width="2" height="1" fill="#dfd2be"/>
<rect x="14" y="16" width="4" height="1" fill="#d3978a"/>
<rect x="18" y="16" width="2" height="1" fill="#dfd2be"/>
<rect x="20" y="16" width="4" height="1" fill="#332d29"/>
<rect x="24" y="16" width="3" height="1" fill="#5e4c3e"/>
<rect x="27" y="16" width="1" height="1" fill="#a58d73"/>
<rect x="28" y="16" width="2" height="1" fill="#493b33"/>
<rect x="1" y="17" width="2" height="1" fill="#ede5d5"/>
<rect x="3" y="17" width="1" height="1" fill="#493b33"/>
<rect x="4" y="17" width="4" height="1" fill="#a58d73"/>
<rect x="8" y="17" width="7" height="1" fill="#dfd2be"/>
<rect x="15" y="17" width="2" height="1" fill="#d3978a"/>
<rect x="17" y="17" width="7" height="1" fill="#dfd2be"/>
<rect x="24" y="17" width="4" height="1" fill="#a58d73"/>
<rect x="28" y="17" width="1" height="1" fill="#493b33"/>
<rect x="29" y="17" width="2" height="1" fill="#ede5d5"/>
<rect x="2" y="18" width="1" height="1" fill="#493b33"/>
<rect x="3" y="18" width="2" height="1" fill="#ede5d5"/>
<rect x="5" y="18" width="1" height="1" fill="#a58d73"/>
<rect x="6" y="18" width="2" height="1" fill="#5e4c3e"/>
<rect x="8" y="18" width="7" height="1" fill="#dfd2be"/>
<rect x="15" y="18" width="2" height="1" fill="#332d29"/>
<rect x="17" y="18" width="7" height="1" fill="#dfd2be"/>
<rect x="24" y="18" width="2" height="1" fill="#5e4c3e"/>
<rect x="26" y="18" width="1" height="1" fill="#a58d73"/>
<rect x="27" y="18" width="2" height="1" fill="#ede5d5"/>
<rect x="29" y="18" width="1" height="1" fill="#493b33"/>
<rect x="2" y="19" width="3" height="1" fill="#493b33"/>
<rect x="5" y="19" width="3" height="1" fill="#a58d73"/>
<rect x="8" y="19" width="7" height="1" fill="#dfd2be"/>
<rect x="15" y="19" width="2" height="1" fill="#332d29"/>
<rect x="17" y="19" width="7" height="1" fill="#dfd2be"/>
<rect x="24" y="19" width="3" height="1" fill="#a58d73"/>
<rect x="27" y="19" width="3" height="1" fill="#493b33"/>
<rect x="1" y="20" width="4" height="1" fill="#ede5d5"/>
<rect x="5" y="20" width="2" height="1" fill="#493b33"/>
<rect x="7" y="20" width="1" height="1" fill="#a58d73"/>
<rect x="8" y="20" width="5" height="1" fill="#dfd2be"/>
<rect x="13" y="20" width="2" height="1" fill="#332d29"/>
<rect x="15" y="20" width="2" height="1" fill="#dfd2be"/>
<rect x="17" y="20" width="2" height="1" fill="#332d29"/>
<rect x="19" y="20" width="5" height="1" fill="#dfd2be"/>
<rect x="24" y="20" width="1" height="1" fill="#a58d73"/>
<rect x="25" y="20" width="2" height="1" fill="#493b33"/>
<rect x="27" y="20" width="4" height="1" fill="#ede5d5"/>
<rect x="4" y="21" width="3" height="1" fill="#493b33"/>
<rect x="7" y="21" width="18" height="1" fill="#dfd2be"/>
<rect x="25" y="21" width="3" height="1" fill="#493b33"/>
<rect x="3" y="22" width="2" height="1" fill="#ede5d5"/>
<rect x="6" y="22" width="1" height="1" fill="#493b33"/>
<rect x="7" y="22" width="1" height="1" fill="#dfd2be"/>
<rect x="8" y="22" width="2" height="1" fill="#c2ad91"/>
<rect x="10" y="22" width="12" height="1" fill="#dfd2be"/>
<rect x="22" y="22" width="2" height="1" fill="#c2ad91"/>
<rect x="24" y="22" width="1" height="1" fill="#dfd2be"/>
<rect x="25" y="22" width="1" height="1" fill="#493b33"/>
<rect x="27" y="22" width="2" height="1" fill="#ede5d5"/>
<rect x="2" y="23" width="1" height="1" fill="#ede5d5"/>
<rect x="6" y="23" width="1" height="1" fill="#493b33"/>
<rect x="7" y="23" width="1" height="1" fill="#dfd2be"/>
<rect x="8" y="23" width="2" height="1" fill="#c2ad91"/>
<rect x="10" y="23" width="12" height="1" fill="#dfd2be"/>
<rect x="22" y="23" width="2" height="1" fill="#c2ad91"/>
<rect x="24" y="23" width="1" height="1" fill="#dfd2be"/>
<rect x="25" y="23" width="1" height="1" fill="#493b33"/>
<rect x="29" y="23" width="1" height="1" fill="#ede5d5"/>
<rect x="6" y="24" width="3" height="1" fill="#493b33"/>
<rect x="9" y="24" width="14" height="1" fill="#dfd2be"/>
<rect x="23" y="24" width="3" height="1" fill="#493b33"/>
<rect x="6" y="25" width="1" height="1" fill="#493b33"/>
<rect x="7" y="25" width="2" height="1" fill="#a58d73"/>
<rect x="9" y="25" width="2" height="1" fill="#dfd2be"/>
<rect x="11" y="25" width="1" height="1" fill="#c2ad91"/>
<rect x="12" y="25" width="8" height="1" fill="#dfd2be"/>
<rect x="20" y="25" width="1" height="1" fill="#c2ad91"/>
<rect x="21" y="25" width="2" height="1" fill="#dfd2be"/>
<rect x="23" y="25" width="2" height="1" fill="#a58d73"/>
<rect x="25" y="25" width="1" height="1" fill="#493b33"/>
<rect x="6" y="26" width="1" height="1" fill="#493b33"/>
<rect x="7" y="26" width="3" height="1" fill="#a58d73"/>
<rect x="10" y="26" width="1" height="1" fill="#dfd2be"/>
<rect x="11" y="26" width="1" height="1" fill="#c2ad91"/>
<rect x="12" y="26" width="8" height="1" fill="#dfd2be"/>
<rect x="20" y="26" width="1" height="1" fill="#c2ad91"/>
<rect x="21" y="26" width="1" height="1" fill="#dfd2be"/>
<rect x="22" y="26" width="3" height="1" fill="#a58d73"/>
<rect x="25" y="26" width="1" height="1" fill="#493b33"/>
<rect x="5" y="27" width="2" height="1" fill="#493b33"/>
<rect x="7" y="27" width="2" height="1" fill="#5e4c3e"/>
<rect x="9" y="27" width="1" height="1" fill="#a58d73"/>
<rect x="10" y="27" width="12" height="1" fill="#dfd2be"/>
<rect x="22" y="27" width="1" height="1" fill="#a58d73"/>
<rect x="23" y="27" width="2" height="1" fill="#5e4c3e"/>
<rect x="25" y="27" width="2" height="1" fill="#493b33"/>
<rect x="5" y="28" width="2" height="1" fill="#493b33"/>
<rect x="7" y="28" width="5" height="1" fill="#c2ad91"/>
<rect x="12" y="28" width="8" height="1" fill="#dfd2be"/>
<rect x="20" y="28" width="5" height="1" fill="#c2ad91"/>
<rect x="25" y="28" width="2" height="1" fill="#493b33"/>
<rect x="5" y="29" width="2" height="1" fill="#493b33"/>
<rect x="7" y="29" width="5" height="1" fill="#c2ad91"/>
<rect x="12" y="29" width="1" height="1" fill="#79634e"/>
<rect x="13" y="29" width="6" height="1" fill="#dfd2be"/>
<rect x="19" y="29" width="1" height="1" fill="#79634e"/>
<rect x="20" y="29" width="5" height="1" fill="#c2ad91"/>
<rect x="25" y="29" width="2" height="1" fill="#493b33"/>
<rect x="5" y="30" width="22" height="1" fill="#493b33"/>
</svg>
